<svg width="27" height="26" viewBox="0 0 27 26" fill="none" xmlns="http://www.w3.org/2000/svg">
<g clip-path="url(#clip0_111_15611)">
<path d="M26.423 24.5855L19.5358 17.98C21.3393 16.0701 22.4475 13.5443 22.4475 10.7649C22.4466 4.81923 17.4221 0 11.2237 0C5.0252 0 0.000732422 4.81923 0.000732422 10.7649C0.000732422 16.7106 5.0252 21.5298 11.2237 21.5298C13.9018 21.5298 16.3582 20.6269 18.2876 19.1258L25.2015 25.7574C25.5384 26.0809 26.0853 26.0809 26.4222 25.7574C26.7598 25.434 26.7598 24.909 26.423 24.5855ZM11.2237 19.8735C5.97909 19.8735 1.72754 15.7955 1.72754 10.7649C1.72754 5.73431 5.97909 1.65624 11.2237 1.65624C16.4683 1.65624 20.7198 5.73431 20.7198 10.7649C20.7198 15.7955 16.4683 19.8735 11.2237 19.8735Z" fill="black"/>
</g>
<defs>
<clipPath id="clip0_111_15611">
<rect width="27" height="26" fill="white"/>
</clipPath>
</defs>
</svg>
