<svg width="22" height="26" viewBox="0 0 22 26" fill="none" xmlns="http://www.w3.org/2000/svg">
<path d="M18.1998 7.28C18.1998 11.3006 14.9404 14.56 10.9198 14.56C6.89916 14.56 3.6398 11.3006 3.6398 7.28C3.6398 3.25937 6.89916 0 10.9198 0C14.9404 0 18.1998 3.25937 18.1998 7.28ZM5.387 7.28C5.387 10.3357 7.86411 12.8128 10.9198 12.8128C13.9755 12.8128 16.4526 10.3357 16.4526 7.28C16.4526 4.22432 13.9755 1.7472 10.9198 1.7472C7.86411 1.7472 5.387 4.22432 5.387 7.28Z" fill="black"/>
<path d="M21.84 26C21.84 24.566 21.5575 23.146 21.0088 21.8211C20.46 20.4962 19.6556 19.2924 18.6416 18.2784C17.6276 17.2644 16.4238 16.46 15.0989 15.9112C13.774 15.3625 12.354 15.08 10.92 15.08C9.48596 15.08 8.06597 15.3625 6.74109 15.9112C5.41622 16.46 4.21241 17.2644 3.19839 18.2784C2.18438 19.2924 1.38002 20.4962 0.831235 21.8211C0.282454 23.146 -1.25367e-07 24.566 0 26H1.74395C1.74395 24.795 1.9813 23.6018 2.44243 22.4885C2.90357 21.3752 3.57948 20.3636 4.43155 19.5116C5.28363 18.6595 6.29519 17.9836 7.40848 17.5224C8.52176 17.0613 9.71498 16.8239 10.92 16.8239C12.125 16.8239 13.3182 17.0613 14.4315 17.5224C15.5448 17.9836 16.5564 18.6595 17.4084 19.5116C18.2605 20.3636 18.9364 21.3752 19.3976 22.4885C19.8587 23.6018 20.096 24.795 20.096 26H21.84Z" fill="black"/>
</svg>
